<svg width="82" height="82" xmlns="http://www.w3.org/2000/svg"><g fill="#FFF" fill-rule="evenodd"><path d="M41 0C18.392 0 0 18.392 0 41s18.392 41 41 41 41-18.392 41-41S63.608 0 41 0zm0 80.251C19.352 80.251 1.749 62.648 1.749 41 1.749 19.352 19.352 1.749 41 1.749c21.648 0 39.251 17.603 39.251 39.251 0 21.648-17.603 39.251-39.251 39.251z"/><path d="M59.761 31.18h-6.008l-2.819-7.048H33.066l-2.819 7.048h-.932v-3.524h-4.23v3.524h-.846a3.387 3.387 0 00-3.383 3.383V55.26a3.41 3.41 0 003.406 3.407h35.476a3.41 3.41 0 003.406-3.407V34.563a3.387 3.387 0 00-3.383-3.383zm-33.269 0h1.412v-2.113h-1.412v2.113zm35.241 24.08c0 1.105-.894 2-1.995 2H24.262a2 2 0 01-1.995-2V34.563c0-1.088.884-1.971 1.972-1.971H31.2l2.819-7.049H49.98l2.819 7.049h6.961c1.088 0 1.972.883 1.972 1.971V55.26z"/><path d="M42 30.474c-6.996 0-12.685 5.693-12.685 12.69 0 6.992 5.689 12.685 12.685 12.685s12.685-5.693 12.685-12.685c0-6.997-5.689-12.69-12.685-12.69zm0 23.963c-6.22 0-11.278-5.059-11.278-11.273 0-6.22 5.059-11.278 11.278-11.278 6.22 0 11.278 5.059 11.278 11.278 0 6.214-5.059 11.273-11.278 11.273z"/><path d="M42 34.704c-4.663 0-8.46 3.793-8.46 8.46 0 4.663 3.797 8.455 8.46 8.455s8.46-3.792 8.46-8.455c0-4.667-3.797-8.46-8.46-8.46zm0 15.508c-3.885 0-7.048-3.163-7.048-7.048A7.055 7.055 0 0142 36.116a7.055 7.055 0 017.048 7.048c0 3.885-3.163 7.048-7.048 7.048zm15.773-15.948a2.56 2.56 0 00-2.558 2.553 2.561 2.561 0 002.558 2.557 2.56 2.56 0 002.553-2.557 2.56 2.56 0 00-2.553-2.553zm0 3.832a1.28 1.28 0 01-1.28-1.279c0-.7.575-1.275 1.28-1.275.7 0 1.274.574 1.274 1.275a1.28 1.28 0 01-1.274 1.279z"/></g></svg>