<svg width="82" height="82" xmlns="http://www.w3.org/2000/svg" xmlns:xlink="http://www.w3.org/1999/xlink"><defs><path id="a" d="M0 0h82v82H0z"/></defs><g fill="none" fill-rule="evenodd"><mask id="b" fill="#fff"><use xlink:href="#a"/></mask><path d="M57.234 39.57L34.717 24.29c-.7-.513-2.567-.513-2.717 1.421v30.563a1.73 1.73 0 002.717 1.422l22.517-15.281c.583-.348 1.383-1.77 0-2.844zm-21.75 13.446V28.97l17.683 12.023-17.684 12.023z" fill="#FFF" mask="url(#b)"/><path d="M41 0C18.392 0 0 18.392 0 41s18.392 41 41 41 41-18.392 41-41S63.608 0 41 0zm0 78.503C20.316 78.503 3.497 61.683 3.497 41 3.497 20.316 20.317 3.497 41 3.497c20.684 0 37.503 16.82 37.503 37.503 0 20.684-16.82 37.503-37.503 37.503z" fill="#FFF" mask="url(#b)"/></g></svg>