<svg width="17" height="16" xmlns="http://www.w3.org/2000/svg"><path d="M5.166.5c1.105 0 2 .9 2 2v2.666c0 1.105-.898 2-2 2H2.5c-1.104 0-2-.898-2-2V2.5c0-1.104.9-2 2-2h2.666zM5.5 2.167H2.167V5.5H5.5V2.167zm-5 8.667c0-1.105.9-2 2-2h2.666c1.105 0 2 .898 2 2V13.5c0 1.104-.898 2-2 2H2.5c-1.104 0-2-.9-2-2v-2.666zm1.667-.334v3.333H5.5V10.5H2.167zm11.682-9.18v11.338l.932-.932a.833.833 0 111.178 1.179l-2.352 2.352a.83.83 0 01-.591.245.823.823 0 01-.59-.243l-2.354-2.354a.833.833 0 111.178-1.179l.932.932V1.32c0-.46.37-.834.833-.834.46 0 .834.37.834.834z" fill="#FFF" fill-rule="evenodd" opacity=".7"/></svg>